<?xml version="1.0" standalone="no"?>
<!DOCTYPE svg PUBLIC "-//W3C//DTD SVG 20010904//EN"
 "http://www.w3.org/TR/2001/REC-SVG-20010904/DTD/svg10.dtd">
<svg version="1.0" xmlns="http://www.w3.org/2000/svg"
 width="700.000000pt" height="700.000000pt" viewBox="0 0 700.000000 700.000000"
 preserveAspectRatio="xMidYMid meet">
<metadata>
Created by potrace 1.11, written by Peter Selinger 2001-2013
</metadata>
<g transform="translate(0.000000,700.000000) scale(0.100000,-0.100000)"
fill="#000000" stroke="none">
<path d="M62 6986 c-13 -7 -32 -26 -43 -42 -18 -28 -19 -59 -19 -1211 l0
-1183 115 0 c102 0 115 2 116 18 1 9 2 508 3 1107 l1 1090 3265 0 3265 0 1
-1282 0 -1283 -2041 0 -2041 0 -1 -110 c0 -61 4 -113 9 -116 5 -4 958 -6 2118
-6 1993 0 2109 1 2134 17 59 39 56 -53 56 1495 0 1225 -2 1425 -15 1456 -29
70 277 64 -3492 64 -2753 -1 -3412 -3 -3431 -14z"/>
<path d="M1654 6524 c-129 -22 -224 -72 -320 -169 -60 -61 -72 -78 -113 -164
-82 -172 -65 -405 40 -552 12 -17 20 -32 18 -33 -2 -2 -31 -7 -64 -10 -90 -10
-113 -15 -178 -37 -157 -53 -284 -143 -383 -270 -92 -119 -94 -127 -383 -1127
-64 -222 -70 -249 -66 -313 9 -135 87 -249 214 -312 58 -28 73 -31 155 -31 82
-1 97 2 157 31 77 38 141 99 174 168 14 27 51 136 84 240 l60 190 1 -844 c0
-803 -1 -843 -17 -828 -29 26 -134 74 -198 91 -83 22 -240 15 -318 -13 -242
-86 -403 -311 -399 -557 2 -141 58 -287 148 -384 l24 -26 -64 -46 c-106 -76
-189 -202 -214 -323 -7 -31 -11 -249 -12 -578 0 -464 2 -532 16 -562 31 -67
15 -65 689 -65 597 0 608 0 641 21 22 13 37 33 44 57 12 40 10 1099 -2 1137
-34 108 -69 172 -135 244 l-52 58 430 0 c236 0 429 -4 429 -8 0 -4 -8 -14 -18
-21 -32 -24 -90 -103 -120 -163 -54 -110 -55 -125 -55 -705 0 -500 1 -538 18
-563 38 -59 20 -57 682 -57 654 0 637 -1 677 53 21 28 21 37 22 560 0 369 -3
548 -11 587 -15 73 -56 161 -103 222 -37 49 -141 138 -161 138 -17 0 -14 6 35
72 87 118 123 228 119 365 -1 48 -5 102 -9 118 -19 88 -89 217 -151 279 -73
73 -194 142 -286 163 -19 4 -82 8 -142 8 l-107 0 0 1190 0 1190 108 56 c208
109 565 294 827 429 247 128 274 149 328 260 57 118 48 255 -25 365 -85 129
-228 190 -378 163 -51 -9 -188 -73 -395 -183 -44 -23 -138 -73 -210 -110 -71
-37 -194 -101 -271 -141 -78 -41 -144 -74 -146 -74 -3 0 5 30 17 68 25 77 33
224 15 294 -39 152 -118 273 -230 351 -88 62 -199 102 -295 106 -33 1 -62 4
-65 5 -3 2 -37 -3 -76 -10z m250 -263 c75 -37 128 -91 165 -170 22 -47 26 -70
26 -141 0 -76 -4 -93 -33 -152 -38 -77 -92 -130 -171 -167 -47 -22 -70 -26
-141 -26 -70 1 -94 5 -140 27 -81 38 -134 89 -172 166 -30 60 -33 75 -33 152
1 70 5 95 26 140 86 185 293 260 473 171z m1536 -286 c89 -46 104 -163 28
-231 -12 -12 -120 -71 -238 -131 -118 -61 -262 -135 -320 -165 -58 -30 -186
-97 -285 -148 -326 -168 -350 -181 -377 -211 -16 -16 -28 -39 -29 -52 -1 -12
-2 -598 -2 -1302 l-2 -1280 -55 -55 c-69 -70 -84 -91 -119 -165 -68 -143 -73
-317 -15 -470 5 -13 -6 -15 -75 -15 -45 0 -81 3 -82 8 0 4 -1 450 -2 991 l-2
985 -100 -1 c-55 -1 -107 -2 -116 -2 -14 -1 -16 -92 -15 -978 1 -538 0 -984
-2 -990 -3 -10 -52 -13 -202 -13 l-197 0 18 53 c10 28 21 81 26 117 4 36 8
725 8 1531 -1 1145 -4 1472 -14 1495 -37 88 -166 90 -208 3 -6 -13 -47 -139
-91 -279 -44 -140 -106 -336 -137 -435 -31 -99 -74 -236 -95 -304 -27 -87 -47
-132 -66 -152 -89 -93 -241 -24 -237 106 0 11 26 106 56 210 31 105 88 298
126 430 129 447 142 487 173 549 44 86 144 183 238 230 122 60 152 63 657 63
l452 1 178 93 c98 50 219 113 268 139 50 26 176 92 280 146 105 54 253 131
330 171 149 77 189 87 245 58z m-2621 -3659 c210 -75 296 -333 172 -517 -42
-62 -117 -122 -179 -143 -65 -22 -195 -16 -253 13 -137 66 -210 185 -206 333
8 234 244 393 466 314z m1897 -16 c130 -64 203 -184 198 -325 -5 -135 -80
-246 -204 -304 -46 -22 -69 -26 -145 -26 -78 0 -97 4 -147 28 -178 87 -250
299 -162 472 88 171 290 239 460 155z m-1729 -928 c55 -29 107 -75 133 -117
44 -72 46 -96 46 -570 l-1 -450 -465 0 -465 0 0 465 c1 450 1 466 22 511 39
87 121 158 208 180 17 4 131 7 255 6 212 -2 227 -3 267 -25z m1845 8 c75 -28
132 -81 169 -156 l32 -65 1 -450 c1 -247 -1 -456 -4 -463 -4 -10 -98 -13 -468
-13 l-463 1 3 470 c3 470 3 471 26 518 40 81 121 149 200 167 20 5 131 9 246
9 180 0 217 -2 258 -18z"/>
<path d="M3850 6300 l0 -116 1158 0 c636 1 1162 4 1167 8 8 5 11 139 6 214 -1
8 -337 11 -1166 11 l-1165 0 0 -117z"/>
<path d="M4200 5600 l0 -116 1165 0 c824 -1 1165 3 1166 10 1 16 1 188 0 207
-1 14 -119 15 -1166 15 l-1165 0 0 -116z"/>
<path d="M3736 5011 c-2 -3 -3 -55 -2 -116 l1 -110 1165 0 1165 0 1 116 1 115
-1164 0 c-640 0 -1165 -2 -1167 -5z"/>
<path d="M4330 2563 c-201 -35 -378 -187 -446 -382 -64 -185 -33 -379 87 -544
27 -38 49 -70 47 -72 -2 -1 -17 -10 -35 -19 -47 -23 -138 -119 -176 -184 -71
-121 -71 -125 -73 -730 -1 -540 -1 -543 20 -575 12 -17 33 -37 46 -44 36 -18
1234 -18 1269 0 13 6 33 24 44 39 19 26 20 43 20 570 0 536 0 545 -22 618 -13
41 -38 100 -57 131 -36 60 -149 173 -183 184 -29 9 -26 22 13 65 111 124 159
356 109 530 -56 195 -217 351 -414 403 -53 14 -196 20 -249 10z m245 -257
c108 -49 184 -148 203 -267 22 -150 -57 -298 -196 -366 -50 -24 -69 -28 -147
-28 -77 0 -98 4 -145 26 -126 60 -197 166 -204 301 -9 164 109 320 271 357 60
14 158 3 218 -23z m148 -935 c62 -31 117 -86 148 -147 l24 -49 0 -470 0 -470
-462 -1 c-320 0 -463 3 -464 10 0 6 -1 214 -1 461 l0 450 24 56 c43 96 113
155 212 180 17 4 130 7 251 6 210 -2 222 -3 268 -26z"/>
<path d="M6143 2550 c-251 -72 -426 -302 -425 -560 1 -145 56 -290 148 -390
l24 -26 -64 -46 c-106 -76 -189 -202 -214 -323 -7 -31 -11 -249 -12 -578 0
-464 2 -532 16 -562 31 -67 15 -65 689 -65 597 0 608 0 641 21 22 13 37 33 44
57 12 40 10 1099 -2 1137 -47 149 -113 245 -222 320 l-55 38 39 46 c190 228
173 568 -41 781 -147 147 -369 206 -566 150z m276 -234 c95 -34 173 -113 211
-214 27 -70 22 -191 -11 -259 -31 -63 -111 -143 -174 -173 -42 -21 -64 -25
-145 -25 -107 0 -154 17 -230 82 -205 176 -133 512 128 593 66 21 155 19 221
-4z m156 -941 c71 -29 127 -82 163 -155 l27 -55 0 -465 0 -465 -465 0 -465 0
-1 440 c-1 523 1 535 84 627 37 41 95 76 147 89 17 4 125 7 240 7 199 1 214
-1 270 -23z"/>
</g>
</svg>
